PathFileType	4	(X/Y/Z)	SUBJ11_2_walk_RCNL2025.trc
DataRate	CameraRate	NumFrames	NumMarkers	Units	OrigDataRate	OrigDataStartFrame	OrigNumFrames
100	100	11	25	mm	100	60	478
Frame#	Time	R_Shoulder			L_Shoulder			C7			J_Notch			R_Elbow			L_Elbow			R_Wrist			L_Wrist			R_Asis			L_Asis			Sacral			Thoracic			Sternum			R_Thigh_Lateral			R_Knee_Lateral			R_Shank_Lateral			R_Ankle_Lateral			R_Heel			R_Toe			L_Thigh_Lateral			L_Knee_Lateral			L_Shank_Lateral			L_Ankle_Lateral			L_Heel			L_Toe		
		X1	Y1	Z1	X2	Y2	Z2	X3	Y3	Z3	X4	Y4	Z4	X5	Y5	Z5	X6	Y6	Z6	X7	Y7	Z7	X8	Y8	Z8	X9	Y9	Z9	X10	Y10	Z10	X11	Y11	Z11	X12	Y12	Z12	X13	Y13	Z13	X14	Y14	Z14	X15	Y15	Z15	X16	Y16	Z16	X17	Y17	Z17	X18	Y18	Z18	X19	Y19	Z19	X20	Y20	Z20	X21	Y21	Z21	X22	Y22	Z22	X23	Y23	Z23	X24	Y24	Z24	X25	Y25	Z25
60	0.59000000	-1670.339966	1441.664673	59.839439	-1652.849365	1431.342407	-335.353546	-1708.461060	1481.008301	-140.074860	-1560.641968	1379.372925	-127.335175	-1788.939819	1115.706787	135.738785	-1583.443237	1091.189697	-405.980682	-1766.259827	853.465698	122.057560	-1407.145935	903.367554	-343.157867	-1585.128052	958.853088	27.952702	-1607.787231	958.721313	-262.535309	-1771.929321	980.232117	-104.611931	-1785.778687	1300.266602	-136.339569	-1497.514160	1180.162720	-124.362007	-1566.056030	619.488831	88.234985	-1498.250977	482.998596	22.999622	-1462.483032	280.275024	55.657612	-1427.953857	83.079185	-14.382895	-1478.202759	55.118515	-67.457153	-1290.620972	90.407188	-43.057198	-1744.667725	617.850708	-313.749786	-1765.322021	467.877747	-221.985443	-1817.393677	259.327942	-250.039902	-1846.949097	67.315201	-171.764221	-1901.636963	67.545509	-120.558037	-1715.864014	49.070797	-135.029648
61	0.60000000	-1659.798096	1439.498779	60.118900	-1641.701782	1429.710205	-335.031372	-1697.343994	1479.209473	-139.871048	-1549.790527	1377.209106	-127.102913	-1779.556641	1113.710449	135.051193	-1571.435669	1090.156738	-407.030518	-1758.219727	851.411438	120.798538	-1392.547119	905.227448	-343.120590	-1574.571167	956.290405	28.077475	-1597.783936	957.078247	-262.429291	-1761.533325	978.338318	-104.107018	-1775.116943	1298.507324	-136.263504	-1487.693359	1177.834351	-124.393295	-1559.939087	614.588928	85.499161	-1488.465332	480.581970	18.727211	-1444.208008	279.468750	52.290657	-1401.071899	83.426888	-17.308661	-1450.271606	53.490383	-70.240013	-1263.932739	95.993034	-46.428295	-1735.756104	616.628052	-314.313690	-1758.506958	466.939911	-222.365601	-1813.515991	259.018097	-250.324173	-1846.504517	67.677368	-171.723938	-1901.328857	68.657486	-120.693649	-1715.738770	49.040646	-134.942322
62	0.61000000	-1649.165649	1437.257324	60.436668	-1630.477661	1427.993286	-334.692871	-1686.120483	1477.355225	-139.629868	-1538.830322	1374.980103	-126.779243	-1769.946899	1111.619019	134.473251	-1559.691284	1088.984741	-408.069427	-1749.755920	849.279022	119.743034	-1378.484680	906.747437	-343.028885	-1563.932495	953.704712	28.182556	-1587.661987	955.421448	-262.281464	-1751.058228	976.411987	-103.548462	-1764.331177	1296.691406	-136.177429	-1477.925293	1175.433228	-124.415855	-1553.577637	609.740173	82.774788	-1478.530396	478.366882	14.565252	-1427.287231	278.786804	48.825703	-1376.440063	84.063843	-20.466753	-1424.382446	52.569473	-73.602440	-1239.438354	101.127716	-49.162373	-1726.710205	615.369324	-314.826080	-1751.471802	465.966156	-222.759796	-1809.528687	258.746002	-250.614151	-1846.049927	68.153259	-171.690964	-1900.986938	69.935669	-120.845627	-1715.611938	49.016796	-134.845428
63	0.62000000	-1638.430908	1434.950439	60.794571	-1619.171631	1426.208374	-334.331726	-1674.787109	1475.458374	-139.345047	-1527.751343	1372.699585	-126.366119	-1760.114014	1109.445190	134.007431	-1548.222534	1087.681396	-409.081512	-1740.881348	847.077759	118.895164	-1364.965881	907.907379	-342.897324	-1553.215332	951.113953	28.269804	-1577.405151	953.751709	-262.113068	-1740.496216	974.456482	-102.958427	-1753.419067	1294.835693	-136.077530	-1468.095703	1172.978516	-124.402321	-1546.624634	605.134033	80.185387	-1468.358398	476.322601	10.658724	-1411.765381	278.001923	45.261547	-1354.257324	84.693802	-23.964066	-1400.790283	52.110760	-77.655296	-1217.285889	105.458664	-51.358997	-1717.644165	614.123108	-315.294342	-1744.266602	464.993622	-223.180710	-1805.462769	258.543396	-250.926331	-1845.581177	68.769341	-171.686279	-1900.604980	71.403984	-121.031815	-1715.477905	48.999496	-134.752518
64	0.63000000	-1627.581787	1432.595093	61.201393	-1607.773926	1424.376953	-333.939148	-1663.341553	1473.537476	-139.007385	-1516.544189	1370.387085	-125.865311	-1750.059082	1107.205200	133.657074	-1537.039673	1086.258423	-410.050140	-1731.619385	844.822205	118.255207	-1351.994080	908.693695	-342.742416	-1542.421997	948.538025	28.350525	-1566.993896	952.071289	-261.946930	-1729.830444	972.482727	-102.367279	-1742.376587	1292.957642	-135.956665	-1458.062988	1170.509277	-124.321236	-1538.779541	600.945435	77.817085	-1457.890015	474.396545	7.116849	-1397.627808	276.910858	41.609989	-1334.637207	85.039253	-27.857706	-1379.705078	51.854523	-82.397827	-1197.576660	108.670403	-53.221828	-1708.635498	612.937012	-315.740234	-1736.921875	464.058014	-223.648438	-1801.323975	258.438263	-251.286362	-1845.084229	69.555023	-171.737823	-1900.173950	73.088303	-121.280594	-1715.326294	48.989563	-134.678055
65	0.64000000	-1616.608032	1430.213501	61.671944	-1596.271606	1422.525146	-333.502228	-1651.784424	1471.616211	-138.605759	-1505.198242	1368.066895	-125.279823	-1739.780518	1104.919189	133.425583	-1526.148438	1084.732666	-410.957336	-1722.002502	842.530029	117.809265	-1339.567627	909.096985	-342.578003	-1531.543579	945.996887	28.435966	-1556.407349	950.387146	-261.807892	-1719.038086	970.512146	-101.810646	-1731.198608	1291.076172	-135.804276	-1447.688965	1168.079468	-124.142365	-1529.822021	597.309021	75.686836	-1447.090088	472.535614	4.000985	-1384.794556	275.384338	37.904320	-1317.601318	84.887878	-32.129440	-1361.278687	51.568283	-87.698647	-1180.351807	110.520088	-55.019543	-1699.710938	611.851013	-316.195831	-1729.446899	463.189697	-224.188477	-1797.096436	258.453827	-251.724716	-1844.539307	70.540291	-171.878632	-1899.683960	75.016701	-121.628616	-1715.146606	48.987957	-134.635757
66	0.65000000	-1605.502441	1427.832642	62.225151	-1584.655273	1420.683350	-333.003174	-1640.121338	1469.721436	-138.128220	-1493.703369	1365.767822	-124.614822	-1729.272705	1102.609009	133.315964	-1515.550049	1083.127563	-411.783661	-1712.064941	840.219513	117.526119	-1327.684204	909.113129	-342.417770	-1520.554443	943.513428	28.530205	-1545.624756	948.712708	-261.718964	-1708.094604	968.576294	-101.325706	-1719.879639	1289.213013	-135.604752	-1436.867310	1165.747070	-123.842972	-1519.624878	594.311951	73.756378	-1435.937500	470.707397	1.330798	-1373.110962	273.397736	34.204792	-1303.080200	84.121643	-36.681351	-1345.587036	51.082481	-93.315384	-1165.578735	110.861092	-57.026936	-1690.843384	610.888916	-316.696045	-1721.827637	462.408691	-224.827133	-1792.747437	258.607239	-252.270233	-1843.924561	71.752518	-172.143417	-1899.122314	77.219177	-122.115395	-1714.929688	48.994423	-134.637146
67	0.66000000	-1594.259888	1425.482666	62.881245	-1572.926392	1418.885498	-332.420990	-1628.361206	1467.883179	-137.560501	-1482.057861	1363.528687	-123.869797	-1718.525391	1100.298218	133.331146	-1505.242188	1081.474365	-412.508636	-1701.830017	837.908783	117.369934	-1316.346558	908.744141	-342.278244	-1509.415283	941.120056	28.627478	-1534.626953	947.067322	-261.693115	-1696.980103	966.714294	-100.946770	-1708.413330	1287.396484	-135.336044	-1425.543823	1163.562622	-123.414078	-1508.162354	591.998840	71.984367	-1424.420654	468.915100	-0.898899	-1362.347656	271.032104	30.598484	-1290.919678	82.725166	-41.348557	-1332.608643	50.315231	-98.941513	-1153.142090	109.652298	-59.460754	-1681.958496	610.052063	-317.271790	-1714.025391	461.721741	-225.588043	-1788.231323	258.909637	-252.945923	-1843.215210	73.215515	-172.563171	-1898.470215	79.728172	-122.774689	-1714.667236	49.006607	-134.689713
68	0.67000000	-1582.874390	1423.195801	63.659081	-1561.098999	1417.171143	-331.734772	-1616.515015	1466.134766	-136.883911	-1470.274170	1361.397583	-123.029495	-1707.524292	1098.013062	133.474503	-1495.219727	1079.814209	-413.111328	-1691.297852	835.618591	117.316456	-1305.565735	907.998169	-342.178833	-1498.080566	938.865723	28.710196	-1523.399536	945.473938	-261.729462	-1685.684570	964.970764	-100.701317	-1696.793457	1285.663940	-134.970993	-1413.724365	1161.562500	-122.862007	-1495.517700	590.378235	70.375000	-1412.543579	467.200775	-2.702659	-1352.224854	268.452148	27.193827	-1280.891479	80.781799	-45.918056	-1322.210938	49.285263	-104.255379	-1142.842651	106.958511	-62.425064	-1672.950806	609.320679	-317.944031	-1705.978394	461.124390	-226.489899	-1783.493408	259.369080	-253.766708	-1842.381836	74.953110	-173.158524	-1897.697876	82.581406	-123.625923	-1714.349731	49.020454	-134.794571
69	0.68000000	-1571.338379	1421.007324	64.574348	-1549.195068	1415.588013	-330.928680	-1604.590942	1464.516968	-136.074692	-1458.371094	1359.421997	-122.069809	-1696.253174	1095.783936	133.748718	-1485.474121	1078.198486	-413.569824	-1680.439514	833.375916	117.359032	-1295.361389	906.892975	-342.144394	-1486.512939	936.818726	28.749311	-1511.938477	943.958984	-261.817108	-1674.213989	963.395142	-100.606552	-1685.016602	1284.066528	-134.482132	-1401.470093	1159.771606	-122.206367	-1481.877686	589.423523	68.987312	-1400.336304	465.637512	-4.094887	-1342.454590	265.875519	24.112535	-1272.708374	78.460258	-50.149750	-1314.148315	48.108814	-108.957695	-1134.410034	102.945152	-65.877266	-1663.704346	608.664551	-318.719482	-1697.603882	460.606659	-227.543808	-1778.471802	259.996399	-254.736435	-1841.385864	76.995277	-173.934555	-1896.758545	85.826744	-124.669403	-1713.965698	49.030945	-134.945175
70	0.69000000	-1559.641968	1418.955811	65.636269	-1537.239868	1414.195068	-329.997314	-1592.591309	1463.081909	-135.105591	-1446.359619	1357.639526	-120.975685	-1684.692871	1093.646606	134.153564	-1475.995239	1076.688599	-413.861084	-1669.199646	831.217529	117.506268	-1285.761475	905.458466	-342.207031	-1474.700073	935.068176	28.711409	-1500.253296	942.553345	-261.940582	-1662.589844	962.041992	-100.665146	-1673.087036	1282.670654	-133.848801	-1388.882446	1158.213501	-121.476166	-1467.512329	589.079651	67.906921	-1387.860840	464.320374	-5.083055	-1332.785400	263.541870	21.480625	-1266.046875	75.989670	-53.803738	-1308.078247	46.976048	-112.802765	-1127.526245	97.865288	-69.622391	-1654.108887	608.056702	-319.590942	-1688.798706	460.158813	-228.752441	-1773.097046	260.812378	-255.845428	-1840.177002	79.383942	-174.880676	-1895.584106	89.526764	-125.885422	-1713.502075	49.032722	-135.127304
